<svg xmlns="http://www.w3.org/2000/svg" version="1.1" xmlns:xlink="http://www.w3.org/1999/xlink" viewBox="0 0 200 200"><rect width="200" height="200" fill="url('#gradient')"></rect><defs><linearGradient id="gradient" gradientTransform="rotate(45 0.5 0.5)"><stop offset="0%" stop-color="#dfe1bf"></stop><stop offset="100%" stop-color="#6ea9a0"></stop></linearGradient></defs><g><g fill="#445272" transform="matrix(3.924206940600383,0,0,3.924206940600383,10.11576815322914,127.88586397437001)" stroke="#c8512e" stroke-width="0.2"><path d="M9.98 0L9.15-2.66L4.45-2.66L3.63 0L-0.03 0L5.19-14.22L8.41-14.22L13.66 0L9.98 0ZM6.80-10.23L5.27-5.30L8.33-5.30L6.80-10.23ZM18.35-14.22L18.35 0L14.93 0L14.93-14.22L18.35-14.22ZM28.07-3.78L28.07-3.78Q28.07-4.53 27.53-4.95Q27.00-5.37 25.66-5.82Q24.33-6.27 23.48-6.69L23.48-6.69Q20.71-8.05 20.71-10.42L20.71-10.42Q20.71-11.60 21.40-12.50Q22.09-13.41 23.35-13.91Q24.61-14.41 26.18-14.41L26.18-14.41Q27.71-14.41 28.93-13.87Q30.15-13.32 30.82-12.31Q31.49-11.30 31.49-10L31.49-10L28.08-10Q28.08-10.87 27.54-11.35Q27.01-11.83 26.10-11.83L26.10-11.83Q25.19-11.83 24.65-11.42Q24.12-11.02 24.12-10.39L24.12-10.39Q24.12-9.84 24.71-9.40Q25.29-8.96 26.77-8.48Q28.24-8.01 29.19-7.46L29.19-7.46Q31.49-6.13 31.49-3.80L31.49-3.80Q31.49-1.93 30.09-0.87Q28.68 0.20 26.23 0.20L26.23 0.20Q24.50 0.20 23.10-0.42Q21.70-1.04 20.99-2.12Q20.28-3.20 20.28-4.61L20.28-4.61L23.72-4.61Q23.72-3.47 24.31-2.92Q24.90-2.38 26.23-2.38L26.23-2.38Q27.08-2.38 27.57-2.75Q28.07-3.12 28.07-3.78ZM42.16 0L41.33-2.66L36.63-2.66L35.81 0L32.15 0L37.36-14.22L40.59-14.22L45.84 0L42.16 0ZM38.97-10.23L37.45-5.30L40.51-5.30L38.97-10.23Z"></path></g></g></svg>